<svg width="1084" height="261" viewBox="0 0 1084 261" fill="none" xmlns="http://www.w3.org/2000/svg">
<g opacity="0.6">
<path d="M928.829 69.9107C924.538 69.5714 922.065 69.0138 918.09 67.2443C917.193 69.1835 916.781 70.9773 917.169 72.9408C919.714 74.371 923.205 75.4376 928.004 76.383C927.132 73.3772 927.156 71.7046 928.829 69.9107Z" fill="url(#paint0_linear_1_67)"/>
<path d="M95.0669 57.6203C96.2789 58.9051 96.7395 59.9717 96.4486 62.0807C98.6545 61.3292 99.915 60.3353 102.097 58.3476C102.266 56.6992 101.854 55.8508 100.57 54.4933C98.6545 56.1659 97.2001 57.2325 95.0669 57.6203Z" fill="url(#paint1_linear_1_67)"/>
<path d="M768.668 129.785C768.135 133.178 768.353 135.287 769.88 138.875C773.662 136.863 776.256 136.378 779.237 136.645C779.989 133.494 779.965 131.263 779.504 127.821C775.868 129.276 773.056 129.664 768.668 129.785Z" fill="url(#paint2_linear_1_67)"/>
<path d="M56.4037 160.62C58.0763 157.614 58.6339 155.772 57.8339 152.184C52.3313 150.633 49.1557 149.324 44.1864 146.73C43.9197 148.766 43.3137 150.148 42.5623 151.166C48.3558 153.954 51.5556 156.402 56.4037 160.62Z" fill="url(#paint3_linear_1_67)"/>
<path d="M0.552813 187.769C-0.0532061 190.702 -0.125929 192.592 0.16496 195.089C2.12846 194.75 3.31626 194.168 4.28589 193.392C3.77683 191.914 3.97076 190.726 4.45557 188.908C2.73448 189.078 1.81333 188.738 0.552813 187.769Z" fill="url(#paint4_linear_1_67)"/>
<path d="M960.778 202.192C961.505 202.41 962.087 202.798 962.572 203.719C964.39 201.95 965.311 200.592 966.547 198.508C965.674 197.32 964.923 196.859 964.365 196.593C963.565 199.065 962.547 200.374 960.778 202.192Z" fill="url(#paint5_linear_1_67)"/>
<path d="M993.019 61.1601C993.867 64.0205 994.837 65.5961 997.382 67.8263C999.588 64.8204 1001.45 63.4872 1003.9 62.5903C1003.32 59.8511 1002.45 58.1058 1000.8 55.5847C998.473 58.0573 996.413 59.4147 993.019 61.1601Z" fill="url(#paint6_linear_1_67)"/>
<path d="M581.845 159.625C582.718 157.928 583.009 156.91 582.5 154.923C579.421 154.147 577.627 153.468 574.84 152.111C574.719 153.25 574.403 154.026 574.016 154.607C577.264 156.062 579.082 157.371 581.845 159.625Z" fill="url(#paint7_linear_1_67)"/>
<path d="M765.446 75.4377C768.815 76.2134 770.73 76.2376 773.979 74.4438C773.93 68.6988 774.318 65.2566 775.433 59.7297C773.397 60.0448 771.894 59.8266 770.682 59.4146C769.615 65.7899 768.137 69.5714 765.446 75.4377Z" fill="url(#paint8_linear_1_67)"/>
<path d="M664.944 126.488C665.937 128.306 667.125 129.13 669.38 129.494C671.028 128.039 671.998 126.755 672.361 125.106C670.689 123.458 670.058 121.906 669.21 119.143C667.998 122.173 667.174 123.991 664.944 126.488Z" fill="url(#paint9_linear_1_67)"/>
<path d="M1073.01 12.5567C1075.29 14.7626 1077.35 15.4171 1080.79 14.9323C1082.52 12.0719 1083.39 9.79326 1083.15 7.24798C1079.97 5.62385 1078.37 3.63611 1075.92 0C1075.51 4.92087 1075.12 7.92673 1073.01 12.5567Z" fill="url(#paint10_linear_1_67)"/>
<path d="M29.2294 106.417C27.9447 105.593 26.9993 104.624 25.9327 103.096C24.0661 106.466 22.6602 108.623 20.6482 110.757C21.3269 112.647 22.1511 113.423 23.4601 114.296C25.0115 112.793 27.1447 109.908 29.2294 106.417Z" fill="url(#paint11_linear_1_67)"/>
<path d="M1030.01 168.716C1028.26 169.54 1027.17 169.855 1025.21 170.049C1025.28 170.994 1025.52 171.794 1026.11 172.473C1027.41 172.473 1029.01 172.11 1031.1 171.431C1030.11 170.437 1029.77 169.782 1030.01 168.716Z" fill="url(#paint12_linear_1_67)"/>
<path d="M372.842 104.477C371.775 101.132 371.896 98.805 374.248 95.3386C369.666 94.7568 366.539 95.4598 360.915 97.084C359.17 99.8716 359.17 101.738 360.309 105.302C365.133 103.944 368.697 103.314 372.842 104.477Z" fill="url(#paint13_linear_1_67)"/>
<path d="M82.8499 10.5686C84.474 12.8715 84.9346 14.6895 83.9649 17.8893C87.601 17.2348 89.8312 15.95 93.734 13.3563C94.4127 10.811 93.9279 9.38081 92.231 6.9325C88.8616 9.1384 86.292 10.4716 82.8499 10.5686Z" fill="url(#paint14_linear_1_67)"/>
<path d="M1072.19 83.3647C1075.31 80.4558 1077.91 79.7528 1081.93 79.2922C1078.22 73.4017 1073.84 67.9233 1071.12 66.1295C1068.24 67.8021 1066.2 69.8868 1063.78 73.1351C1066.88 75.0986 1068.94 78.1287 1072.19 83.3647Z" fill="url(#paint15_linear_1_67)"/>
<path d="M503.184 52.7968C501.996 51.5848 501.269 50.203 501.293 47.9001C495.863 49.4516 492.615 51.1242 487.961 53.8634C488.373 57.1117 489.367 58.7843 490.191 59.9236C494.385 55.9723 497.778 54.4936 503.184 52.7968Z" fill="url(#paint16_linear_1_67)"/>
<path d="M849.221 68.19C850.07 66.7355 851.16 65.669 853.366 65.0872C850.433 60.336 847.961 57.6938 844.106 54.0092C841.125 55.2697 839.791 56.6756 838.943 57.7422C843.84 60.6754 846.167 63.5358 849.221 68.19Z" fill="url(#paint17_linear_1_67)"/>
<path d="M411.143 21.5749C408.089 22.5445 404.647 22.2536 397.69 18.8114C396.72 22.0354 396.744 25.0898 397.981 29.0895C403.507 30.9318 406.95 31.562 412.573 30.8833C410.998 27.829 410.852 25.6958 411.143 21.5749Z" fill="url(#paint18_linear_1_67)"/>
<path d="M1041.74 33.4041C1043.44 33.1859 1044.43 32.2648 1046.01 30.7134C1042.47 27.4166 1039.68 22.8836 1036.94 17.3082C1035.61 18.496 1034.52 18.9323 1032.58 19.2475C1035.1 25.2834 1037.06 28.459 1041.74 33.4041Z" fill="url(#paint19_linear_1_67)"/>
<path d="M252.923 61.0625C253.214 62.2745 254.014 63.0018 255.565 63.8017C257.093 61.5473 258.256 60.3838 260.438 58.9536C259.347 58.3233 258.814 57.5233 258.086 55.8022C255.856 57.2809 254.475 58.8323 252.923 61.0625Z" fill="url(#paint20_linear_1_67)"/>
<path d="M959.42 126.27C961.19 126.44 962.668 126.924 964.583 127.943C964.705 123.482 965.02 120.501 965.989 117.252C964.268 115.653 963.032 115.313 961.214 115.095C960.39 117.446 959.711 121.543 959.42 126.27Z" fill="url(#paint21_linear_1_67)"/>
<path d="M88.8869 217.149C86.1719 213.901 84.8872 211.792 83.3843 207.792C81.4208 208.495 79.8693 209.441 78.7543 211.041C79.5057 213.828 81.1541 216.98 83.7721 221.004C85.275 218.337 86.4628 217.222 88.8869 217.149Z" fill="url(#paint22_linear_1_67)"/>
<path d="M3.87402 255.4C4.86789 257.824 5.88601 259.667 7.63134 261C9.27971 260.442 10.2009 259.764 11.0008 258.673C9.0373 256.879 8.21312 255.594 7.36469 253.122C6.27386 254.6 5.44967 255.303 3.87402 255.4Z" fill="url(#paint23_linear_1_67)"/>
<path d="M28.114 23.9979C28.0413 25.9857 27.4353 27.0765 26.2717 28.5552C29.4473 29.2824 32.6955 29.6218 34.15 29.3066C34.5378 27.8037 34.5378 26.4462 34.2469 24.5797C32.5986 24.9675 30.926 24.6282 28.114 23.9979Z" fill="url(#paint24_linear_1_67)"/>
<path d="M1073.45 183.091C1073.13 184.57 1072.19 185.927 1069.13 187.988C1070.22 189.151 1071.51 189.854 1073.45 190.29C1075.51 188.448 1076.6 187.163 1077.64 184.691C1075.99 184.618 1075.07 184.182 1073.45 183.091Z" fill="url(#paint25_linear_1_67)"/>
<path d="M53.3254 82.8556C55.4343 81.9344 57.9311 81.8859 63.1914 83.8009C63.6519 81.4253 63.3853 79.2194 62.1732 76.456C58.0523 75.5591 55.5313 75.3652 51.5558 76.2863C52.9375 78.3468 53.2042 79.8982 53.3254 82.8556Z" fill="url(#paint26_linear_1_67)"/>
<path d="M1066.83 129.786C1068.29 126.659 1068.84 124.574 1069.21 121.714C1066.9 121.592 1065.45 121.908 1064.16 122.538C1064.36 124.307 1063.8 125.592 1062.81 127.507C1064.75 127.75 1065.67 128.38 1066.83 129.786Z" fill="url(#paint27_linear_1_67)"/>
<path d="M411.506 115.774C413.494 117.98 414.754 120.307 415.918 123.725C421.178 118.392 424.984 115.12 429.88 112.211C429.614 108.308 428.474 106.417 426.487 104.115C422.778 106.054 417.251 110.32 411.506 115.774Z" fill="url(#paint28_linear_1_67)"/>
<path d="M334.542 27.1256C332.07 25.5014 329.258 23.95 325.84 24.0712C324.022 25.7439 322.713 26.8104 320.434 27.974C322.494 28.7012 323.222 30.0345 323.852 33.0888C326.664 30.592 330.009 29.1133 334.542 27.1256Z" fill="url(#paint29_linear_1_67)"/>
<path d="M674.76 71.123C672.409 69.0625 669.67 67.0263 666.082 66.6869C663.949 68.1898 662.398 69.0867 659.852 70.0079C661.913 71.0745 662.495 72.5774 662.689 75.8741C666.01 73.5955 669.718 72.5289 674.76 71.123Z" fill="url(#paint30_linear_1_67)"/>
<path d="M131.575 157.637C133.029 159.019 133.611 160.231 133.369 162.607C135.817 161.637 137.199 160.425 139.574 158.074C139.695 156.207 139.162 155.262 137.635 153.783C135.575 155.795 133.975 157.104 131.575 157.637Z" fill="url(#paint31_linear_1_67)"/>
<path d="M158.286 147.869C157.826 145.857 157.244 144.281 156.056 143.02C154.699 143.263 153.899 143.675 153.147 144.426C154.456 146.075 154.941 147.166 155.305 149.226C156.323 148.208 157.05 147.772 158.286 147.869Z" fill="url(#paint32_linear_1_67)"/>
<path d="M1035.92 242.723C1033.98 241.923 1033.14 240.905 1032.12 239.208C1030.23 242.069 1028.68 245.147 1028.43 246.723C1029.77 247.668 1031.12 248.153 1033.06 248.565C1033.31 246.796 1034.25 245.268 1035.92 242.723Z" fill="url(#paint33_linear_1_67)"/>
<path d="M874.335 251.038C871.669 250.844 870.336 250.577 868.445 249.317C868.081 250.31 867.693 250.868 867.063 251.159C869.002 252.662 870.651 253.171 873.438 253.656C874.02 252.831 874.263 251.983 874.335 251.038Z" fill="url(#paint34_linear_1_67)"/>
<path d="M169.874 27.1496C169.583 28.8707 169.68 29.9615 170.456 31.7796C172.395 30.7615 173.704 30.5433 175.231 30.6888C175.619 29.0889 175.619 27.9496 175.401 26.2042C173.558 26.9072 172.128 27.1011 169.874 27.1496Z" fill="url(#paint35_linear_1_67)"/>
<path d="M287 127.884C287.897 140.223 308.017 147.859 311.435 160.561V153.289C308.283 141.556 290.879 134.138 287.533 123.351C287.291 122.576 287.121 121.8 287.048 121L287.024 126.042L287 127.884Z" fill="url(#paint36_linear_1_67)"/>
<path d="M272.655 58.0083V58.0325C272.655 59.293 272.946 60.5536 273.455 61.7898C274.207 60.2142 275.491 58.687 277.431 57.3053V50.0331C274.061 52.4329 272.679 55.2206 272.655 58.0083Z" fill="url(#paint37_linear_1_67)"/>
<path d="M866.942 230.82V225.123C874.093 222.99 892.104 215.621 895.667 207.112C896.08 206.143 896.298 205.173 896.298 204.203V209.9C896.273 219.572 874.893 228.468 866.942 230.82Z" fill="url(#paint38_linear_1_67)"/>
<path d="M871.257 114.998V109.301C880.662 112.21 884.419 116.646 884.25 121.494V121.519C884.225 122.367 884.056 123.24 883.789 124.112C882.529 120.476 878.626 117.276 871.257 114.998Z" fill="url(#paint39_linear_1_67)"/>
<path d="M864.687 185.951V185.854C864.711 184.908 865.051 184.036 865.632 183.236C871.135 193.514 892.079 192.859 895.764 201.659C896.103 202.507 896.273 203.355 896.273 204.204C896.273 205.174 896.054 206.143 895.642 207.113C891.497 198.216 869.293 199.186 865.002 187.575C864.808 186.993 864.711 186.46 864.687 185.951Z" fill="url(#paint40_linear_1_67)"/>
<path d="M864.857 148.96C865.003 148.184 865.391 147.505 865.997 146.851C866.142 147.045 866.288 147.214 866.457 147.408C870.311 151.796 879.426 153.638 883.28 158.05C884.71 159.626 885.341 161.032 885.389 162.292V162.631C885.341 163.553 885.001 164.401 884.395 165.201C884.105 164.74 883.717 164.256 883.28 163.747C879.426 159.359 870.311 157.517 866.457 153.105C865.512 151.99 865.003 151.02 864.857 150.123C864.785 149.711 864.809 149.323 864.857 148.96Z" fill="url(#paint41_linear_1_67)"/>
<path d="M875.596 134.584C879.766 131.263 882.699 127.627 883.79 124.088C884.056 123.215 884.226 122.342 884.25 121.494L884.226 126.027L884.202 127.797C883.765 131.942 880.541 136.329 875.596 140.28C872.3 142.802 868.057 144.595 866.021 146.85C865.415 147.504 865.027 148.207 864.882 148.959V144.426C864.155 140.329 870.845 138.196 875.596 134.584Z" fill="url(#paint42_linear_1_67)"/>
<path d="M864.687 185.853L864.711 180.52V179.89C865.22 173.587 880.346 170.654 884.395 165.2C884.976 164.4 885.34 163.552 885.389 162.631V167.988C885.679 174.63 869.705 177.563 865.632 183.259C865.051 184.059 864.711 184.908 864.687 185.853Z" fill="url(#paint43_linear_1_67)"/>
</g>
<defs>
<linearGradient id="paint0_linear_1_67" x1="923.714" y1="68.3551" x2="921.853" y2="76.3028" gradientUnits="userSpaceOnUse">
<stop stop-color="#FF5C5C"/>
<stop offset="0.3013" stop-color="#F44444"/>
<stop offset="0.935" stop-color="#D60707"/>
<stop offset="1" stop-color="#D30000"/>
</linearGradient>
<linearGradient id="paint1_linear_1_67" x1="97.4817" y1="56.0112" x2="100.291" y2="61.2966" gradientUnits="userSpaceOnUse">
<stop stop-color="#FF5C5C"/>
<stop offset="0.3013" stop-color="#F44444"/>
<stop offset="0.935" stop-color="#D60707"/>
<stop offset="1" stop-color="#D30000"/>
</linearGradient>
<linearGradient id="paint2_linear_1_67" x1="773.619" y1="128.802" x2="775.411" y2="139.328" gradientUnits="userSpaceOnUse">
<stop stop-color="#FF5C5C"/>
<stop offset="0.3013" stop-color="#F44444"/>
<stop offset="0.935" stop-color="#D60707"/>
<stop offset="1" stop-color="#D30000"/>
</linearGradient>
<linearGradient id="paint3_linear_1_67" x1="52.0106" y1="149.125" x2="48.884" y2="158.024" gradientUnits="userSpaceOnUse">
<stop stop-color="#FF5C5C"/>
<stop offset="0.3013" stop-color="#F44444"/>
<stop offset="0.935" stop-color="#D60707"/>
<stop offset="1" stop-color="#D30000"/>
</linearGradient>
<linearGradient id="paint4_linear_1_67" x1="-0.687094" y1="191.453" x2="4.64254" y2="191.339" gradientUnits="userSpaceOnUse">
<stop stop-color="#4D8EFF"/>
<stop offset="0.4282" stop-color="#3F76FF"/>
<stop offset="1" stop-color="#2850FF"/>
</linearGradient>
<linearGradient id="paint5_linear_1_67" x1="962.371" y1="199.344" x2="965.556" y2="201.58" gradientUnits="userSpaceOnUse">
<stop stop-color="#4D8EFF"/>
<stop offset="0.4282" stop-color="#3F76FF"/>
<stop offset="1" stop-color="#2850FF"/>
</linearGradient>
<linearGradient id="paint6_linear_1_67" x1="996.53" y1="58.5303" x2="1001.88" y2="66.1153" gradientUnits="userSpaceOnUse">
<stop stop-color="#4D8EFF"/>
<stop offset="0.4282" stop-color="#3F76FF"/>
<stop offset="1" stop-color="#2850FF"/>
</linearGradient>
<linearGradient id="paint7_linear_1_67" x1="579.223" y1="153.326" x2="577.63" y2="158.315" gradientUnits="userSpaceOnUse">
<stop stop-color="#4D8EFF"/>
<stop offset="0.4282" stop-color="#3F76FF"/>
<stop offset="1" stop-color="#2850FF"/>
</linearGradient>
<linearGradient id="paint8_linear_1_67" x1="775.297" y1="67.9877" x2="765.835" y2="67.4609" gradientUnits="userSpaceOnUse">
<stop stop-color="#4D8EFF"/>
<stop offset="0.4282" stop-color="#3F76FF"/>
<stop offset="1" stop-color="#2850FF"/>
</linearGradient>
<linearGradient id="paint9_linear_1_67" x1="666.514" y1="122.907" x2="672.918" y2="127.154" gradientUnits="userSpaceOnUse">
<stop stop-color="#FC9512"/>
<stop offset="0.00696701" stop-color="#FC9612"/>
<stop offset="0.68" stop-color="#FED319"/>
<stop offset="1" stop-color="#FFEB1C"/>
</linearGradient>
<linearGradient id="paint10_linear_1_67" x1="1073.67" y1="6.64033" x2="1084.87" y2="9.92261" gradientUnits="userSpaceOnUse">
<stop stop-color="#FC9512"/>
<stop offset="0.00696701" stop-color="#FC9612"/>
<stop offset="0.68" stop-color="#FED319"/>
<stop offset="1" stop-color="#FFEB1C"/>
</linearGradient>
<linearGradient id="paint11_linear_1_67" x1="21.4246" y1="106.221" x2="27.3842" y2="110.732" gradientUnits="userSpaceOnUse">
<stop stop-color="#FC9512"/>
<stop offset="0.00696701" stop-color="#FC9612"/>
<stop offset="0.68" stop-color="#FED319"/>
<stop offset="1" stop-color="#FFEB1C"/>
</linearGradient>
<linearGradient id="paint12_linear_1_67" x1="1027.67" y1="169.234" x2="1028.7" y2="172.757" gradientUnits="userSpaceOnUse">
<stop stop-color="#FC9512"/>
<stop offset="0.00696701" stop-color="#FC9612"/>
<stop offset="0.68" stop-color="#FED319"/>
<stop offset="1" stop-color="#FFEB1C"/>
</linearGradient>
<linearGradient id="paint13_linear_1_67" x1="367.117" y1="105.229" x2="366.71" y2="93.3474" gradientUnits="userSpaceOnUse">
<stop stop-color="#FC9512"/>
<stop offset="0.00696701" stop-color="#FC9612"/>
<stop offset="0.68" stop-color="#FED319"/>
<stop offset="1" stop-color="#FFEB1C"/>
</linearGradient>
<linearGradient id="paint14_linear_1_67" x1="87.0271" y1="8.62406" x2="90.1981" y2="17.5922" gradientUnits="userSpaceOnUse">
<stop stop-color="#FC9512"/>
<stop offset="0.00696701" stop-color="#FC9612"/>
<stop offset="0.68" stop-color="#FED319"/>
<stop offset="1" stop-color="#FFEB1C"/>
</linearGradient>
<linearGradient id="paint15_linear_1_67" x1="1067.52" y1="79.3577" x2="1079.17" y2="70.6559" gradientUnits="userSpaceOnUse">
<stop stop-color="#FC9512"/>
<stop offset="0.00696701" stop-color="#FC9612"/>
<stop offset="0.68" stop-color="#FED319"/>
<stop offset="1" stop-color="#FFEB1C"/>
</linearGradient>
<linearGradient id="paint16_linear_1_67" x1="497.015" y1="56.6971" x2="493.165" y2="48.9414" gradientUnits="userSpaceOnUse">
<stop stop-color="#FC9512"/>
<stop offset="0.00696701" stop-color="#FC9612"/>
<stop offset="0.68" stop-color="#FED319"/>
<stop offset="1" stop-color="#FFEB1C"/>
</linearGradient>
<linearGradient id="paint17_linear_1_67" x1="843.859" y1="63.3818" x2="850.206" y2="57.6396" gradientUnits="userSpaceOnUse">
<stop stop-color="#FC9512"/>
<stop offset="0.00696701" stop-color="#FC9612"/>
<stop offset="0.68" stop-color="#FED319"/>
<stop offset="1" stop-color="#FFEB1C"/>
</linearGradient>
<linearGradient id="paint18_linear_1_67" x1="405.83" y1="17.92" x2="403.991" y2="33.4966" gradientUnits="userSpaceOnUse">
<stop stop-color="#FC9512"/>
<stop offset="0.00696701" stop-color="#FC9612"/>
<stop offset="0.68" stop-color="#FED319"/>
<stop offset="1" stop-color="#FFEB1C"/>
</linearGradient>
<linearGradient id="paint19_linear_1_67" x1="1035.03" y1="27.5423" x2="1042.53" y2="23.7636" gradientUnits="userSpaceOnUse">
<stop stop-color="#FC9512"/>
<stop offset="0.00696701" stop-color="#FC9612"/>
<stop offset="0.68" stop-color="#FED319"/>
<stop offset="1" stop-color="#FFEB1C"/>
</linearGradient>
<linearGradient id="paint20_linear_1_67" x1="258.632" y1="61.8275" x2="254.444" y2="57.7658" gradientUnits="userSpaceOnUse">
<stop stop-color="#FF3EB9"/>
<stop offset="0.0433" stop-color="#FF44BC"/>
<stop offset="0.7006" stop-color="#FF98E3"/>
<stop offset="1" stop-color="#FFB9F2"/>
</linearGradient>
<linearGradient id="paint21_linear_1_67" x1="967.555" y1="122.325" x2="959.021" y2="120.832" gradientUnits="userSpaceOnUse">
<stop stop-color="#FF3EB9"/>
<stop offset="0.0433" stop-color="#FF44BC"/>
<stop offset="0.7006" stop-color="#FF98E3"/>
<stop offset="1" stop-color="#FFB9F2"/>
</linearGradient>
<linearGradient id="paint22_linear_1_67" x1="86.4529" y1="212.504" x2="79.6021" y2="216.656" gradientUnits="userSpaceOnUse">
<stop stop-color="#FF3EB9"/>
<stop offset="0.0433" stop-color="#FF44BC"/>
<stop offset="0.7006" stop-color="#FF98E3"/>
<stop offset="1" stop-color="#FFB9F2"/>
</linearGradient>
<linearGradient id="paint23_linear_1_67" x1="5.46063" y1="258.646" x2="9.30624" y2="255.899" gradientUnits="userSpaceOnUse">
<stop stop-color="#FF3EB9"/>
<stop offset="0.0433" stop-color="#FF44BC"/>
<stop offset="0.7006" stop-color="#FF98E3"/>
<stop offset="1" stop-color="#FFB9F2"/>
</linearGradient>
<linearGradient id="paint24_linear_1_67" x1="30.9797" y1="23.7681" x2="30.0213" y2="30.4668" gradientUnits="userSpaceOnUse">
<stop stop-color="#FF3EB9"/>
<stop offset="0.0433" stop-color="#FF44BC"/>
<stop offset="0.7006" stop-color="#FF98E3"/>
<stop offset="1" stop-color="#FFB9F2"/>
</linearGradient>
<linearGradient id="paint25_linear_1_67" x1="1070.68" y1="184.41" x2="1076.67" y2="188.853" gradientUnits="userSpaceOnUse">
<stop stop-color="#FF3EB9"/>
<stop offset="0.0433" stop-color="#FF44BC"/>
<stop offset="0.7006" stop-color="#FF98E3"/>
<stop offset="1" stop-color="#FFB9F2"/>
</linearGradient>
<linearGradient id="paint26_linear_1_67" x1="57.4181" y1="85.071" x2="57.5381" y2="73.7555" gradientUnits="userSpaceOnUse">
<stop stop-color="#FF3EB9"/>
<stop offset="0.0433" stop-color="#FF44BC"/>
<stop offset="0.7006" stop-color="#FF98E3"/>
<stop offset="1" stop-color="#FFB9F2"/>
</linearGradient>
<linearGradient id="paint27_linear_1_67" x1="1069.17" y1="125.996" x2="1063.19" y2="124.719" gradientUnits="userSpaceOnUse">
<stop stop-color="#00EE98"/>
<stop offset="0.2798" stop-color="#00D685"/>
<stop offset="0.8679" stop-color="#009955"/>
<stop offset="1" stop-color="#008A49"/>
</linearGradient>
<linearGradient id="paint28_linear_1_67" x1="426.003" y1="120.251" x2="417.237" y2="108.657" gradientUnits="userSpaceOnUse">
<stop stop-color="#00EE98"/>
<stop offset="0.2798" stop-color="#00D685"/>
<stop offset="0.8679" stop-color="#009955"/>
<stop offset="1" stop-color="#008A49"/>
</linearGradient>
<linearGradient id="paint29_linear_1_67" x1="329.603" y1="30.6283" x2="324.185" y2="23.6034" gradientUnits="userSpaceOnUse">
<stop stop-color="#00EE98"/>
<stop offset="0.2798" stop-color="#00D685"/>
<stop offset="0.8679" stop-color="#009955"/>
<stop offset="1" stop-color="#008A49"/>
</linearGradient>
<linearGradient id="paint30_linear_1_67" x1="669.064" y1="74.0662" x2="664.402" y2="65.9241" gradientUnits="userSpaceOnUse">
<stop stop-color="#00EE98"/>
<stop offset="0.2798" stop-color="#00D685"/>
<stop offset="0.8679" stop-color="#009955"/>
<stop offset="1" stop-color="#008A49"/>
</linearGradient>
<linearGradient id="paint31_linear_1_67" x1="134.229" y1="155.693" x2="137.698" y2="161.537" gradientUnits="userSpaceOnUse">
<stop stop-color="#00EE98"/>
<stop offset="0.2798" stop-color="#00D685"/>
<stop offset="0.8679" stop-color="#009955"/>
<stop offset="1" stop-color="#008A49"/>
</linearGradient>
<linearGradient id="paint32_linear_1_67" x1="157.447" y1="145.144" x2="154.103" y2="146.816" gradientUnits="userSpaceOnUse">
<stop stop-color="#00EE98"/>
<stop offset="0.2798" stop-color="#00D685"/>
<stop offset="0.8679" stop-color="#009955"/>
<stop offset="1" stop-color="#008A49"/>
</linearGradient>
<linearGradient id="paint33_linear_1_67" x1="1035.08" y1="245.648" x2="1028.81" y2="242.209" gradientUnits="userSpaceOnUse">
<stop stop-color="#00EE98"/>
<stop offset="0.2798" stop-color="#00D685"/>
<stop offset="0.8679" stop-color="#009955"/>
<stop offset="1" stop-color="#008A49"/>
</linearGradient>
<linearGradient id="paint34_linear_1_67" x1="870.035" y1="253.465" x2="871.422" y2="249.089" gradientUnits="userSpaceOnUse">
<stop stop-color="#00EE98"/>
<stop offset="0.2798" stop-color="#00D685"/>
<stop offset="0.8679" stop-color="#009955"/>
<stop offset="1" stop-color="#008A49"/>
</linearGradient>
<linearGradient id="paint35_linear_1_67" x1="172.409" y1="26.6715" x2="173.271" y2="32.0415" gradientUnits="userSpaceOnUse">
<stop stop-color="#00EE98"/>
<stop offset="0.2798" stop-color="#00D685"/>
<stop offset="0.8679" stop-color="#009955"/>
<stop offset="1" stop-color="#008A49"/>
</linearGradient>
<linearGradient id="paint36_linear_1_67" x1="311.425" y1="140.779" x2="287.001" y2="140.779" gradientUnits="userSpaceOnUse">
<stop stop-color="#FC9512"/>
<stop offset="0.00696701" stop-color="#FC9612"/>
<stop offset="0.68" stop-color="#FED319"/>
<stop offset="1" stop-color="#FFEB1C"/>
</linearGradient>
<linearGradient id="paint37_linear_1_67" x1="291.99" y1="53.6081" x2="264.287" y2="57.4864" gradientUnits="userSpaceOnUse">
<stop stop-color="#FC9512"/>
<stop offset="0.00696701" stop-color="#FC9612"/>
<stop offset="0.68" stop-color="#FED319"/>
<stop offset="1" stop-color="#FFEB1C"/>
</linearGradient>
<linearGradient id="paint38_linear_1_67" x1="896.28" y1="217.511" x2="866.939" y2="217.511" gradientUnits="userSpaceOnUse">
<stop stop-color="#FF3EB9"/>
<stop offset="0.0433" stop-color="#FF44BC"/>
<stop offset="0.7006" stop-color="#FF98E3"/>
<stop offset="1" stop-color="#FFB9F2"/>
</linearGradient>
<linearGradient id="paint39_linear_1_67" x1="887.836" y1="118.73" x2="855.687" y2="112.381" gradientUnits="userSpaceOnUse">
<stop stop-color="#FF3EB9"/>
<stop offset="0.0433" stop-color="#FF44BC"/>
<stop offset="0.7006" stop-color="#FF98E3"/>
<stop offset="1" stop-color="#FFB9F2"/>
</linearGradient>
<linearGradient id="paint40_linear_1_67" x1="894.996" y1="198.917" x2="844.001" y2="185.613" gradientUnits="userSpaceOnUse">
<stop stop-color="#FF3EB9"/>
<stop offset="0.0433" stop-color="#FF44BC"/>
<stop offset="0.7006" stop-color="#FF98E3"/>
<stop offset="1" stop-color="#FFB9F2"/>
</linearGradient>
<linearGradient id="paint41_linear_1_67" x1="889.382" y1="160.223" x2="838.387" y2="145.105" gradientUnits="userSpaceOnUse">
<stop stop-color="#FF3EB9"/>
<stop offset="0.0433" stop-color="#FF44BC"/>
<stop offset="0.7006" stop-color="#FF98E3"/>
<stop offset="1" stop-color="#FFB9F2"/>
</linearGradient>
<linearGradient id="paint42_linear_1_67" x1="884.245" y1="135.233" x2="864.812" y2="135.233" gradientUnits="userSpaceOnUse">
<stop stop-color="#FF3EB9"/>
<stop offset="0.0433" stop-color="#FF44BC"/>
<stop offset="0.7006" stop-color="#FF98E3"/>
<stop offset="1" stop-color="#FFB9F2"/>
</linearGradient>
<linearGradient id="paint43_linear_1_67" x1="885.392" y1="174.243" x2="864.698" y2="174.243" gradientUnits="userSpaceOnUse">
<stop stop-color="#FF3EB9"/>
<stop offset="0.0433" stop-color="#FF44BC"/>
<stop offset="0.7006" stop-color="#FF98E3"/>
<stop offset="1" stop-color="#FFB9F2"/>
</linearGradient>
</defs>
</svg>
