<svg width="127" height="22" viewBox="0 0 127 22" fill="none" xmlns="http://www.w3.org/2000/svg">
<path d="M11.3104 0L14.8053 7.08033L22.6209 8.22268L16.9656 13.7309L18.3003 21.5124L11.3104 17.8365L4.32058 21.5124L5.65521 13.7309L0 8.22268L7.81551 7.08033L11.3104 0Z" fill="#F9B401"/>
<path d="M37.3104 0L40.8053 7.08033L48.6209 8.22268L42.9656 13.7309L44.3003 21.5124L37.3104 17.8365L30.3206 21.5124L31.6552 13.7309L26 8.22268L33.8155 7.08033L37.3104 0Z" fill="#F9B401"/>
<path d="M63.3104 0L66.8053 7.08033L74.6209 8.22268L68.9656 13.7309L70.3003 21.5124L63.3104 17.8365L56.3206 21.5124L57.6552 13.7309L52 8.22268L59.8155 7.08033L63.3104 0Z" fill="#F9B401"/>
<path d="M89.3104 0L92.8053 7.08033L100.621 8.22268L94.9656 13.7309L96.3003 21.5124L89.3104 17.8365L82.3206 21.5124L83.6552 13.7309L78 8.22268L85.8155 7.08033L89.3104 0Z" fill="#F9B401"/>
<path d="M115.5 0L119.054 7.2408L127 8.40904L121.25 14.0421L122.607 22L115.5 18.2408L108.393 22L109.75 14.0421L104 8.40904L111.946 7.2408L115.5 0Z" fill="#F9B401"/>
</svg>
