<svg width="183" height="127" viewBox="0 0 183 127" fill="none" xmlns="http://www.w3.org/2000/svg">
<path d="M141 42H180L174.162 61.5051L180 81H141.862" stroke="white" stroke-width="3" stroke-miterlimit="10"/>
<path d="M41.1299 81H3L8.83691 61.5051L3 42H42" stroke="white" stroke-width="3" stroke-miterlimit="10"/>
<path d="M143.223 75.6563C150.051 47.5283 132.784 19.191 104.656 12.3631C76.5284 5.53514 48.191 22.8022 41.3631 50.9302C34.5351 79.0581 51.8022 107.395 79.9302 114.223C108.058 121.051 136.396 103.784 143.223 75.6563Z" stroke="white" stroke-width="3" stroke-miterlimit="10"/>
<path d="M62.39 68.9144C61.838 68.9384 61.178 68.9324 60.41 68.8964C60.29 68.8964 60.056 68.8844 59.708 68.8604C59.36 68.8484 59.096 68.8364 58.916 68.8244C58.868 68.8364 58.82 68.8424 58.772 68.8424C58.556 68.8424 58.364 68.7944 58.196 68.6984C57.98 68.5904 57.806 68.4344 57.674 68.2304C57.542 68.0264 57.476 67.7984 57.476 67.5464C57.476 67.4624 57.488 67.3784 57.512 67.2944C57.512 66.7304 57.518 65.7284 57.53 64.2884C57.542 62.8484 57.536 61.6244 57.512 60.6164C57.488 59.5964 57.434 58.5764 57.35 57.5564C57.326 57.2204 57.41 56.9264 57.602 56.6744C57.794 56.4104 58.046 56.2484 58.358 56.1884C58.538 56.0684 58.742 56.0024 58.97 55.9904C59.138 55.9904 59.384 55.9844 59.708 55.9724C60.044 55.9604 60.278 55.9484 60.41 55.9364C61.058 55.9124 61.616 55.9184 62.084 55.9544C63.536 56.0384 64.694 56.4044 65.558 57.0524C66.29 57.6044 66.722 58.2944 66.854 59.1224C66.962 59.8064 66.848 60.5564 66.512 61.3724C66.416 61.6004 66.29 61.7624 66.134 61.8584C67.022 62.3264 67.592 63.0344 67.844 63.9824C68.06 64.8104 68.048 65.5244 67.808 66.1244C67.58 66.7124 67.124 67.2524 66.44 67.7444C65.432 68.4524 64.082 68.8424 62.39 68.9144ZM62.282 66.4484C63.482 66.4004 64.388 66.1544 65 65.7104C65.276 65.5184 65.432 65.3624 65.468 65.2424C65.516 65.1224 65.498 64.9064 65.414 64.5944C65.306 64.1384 64.766 63.8564 63.794 63.7484C63.35 63.6884 62.762 63.6704 62.03 63.6944C61.01 63.7064 60.422 63.7124 60.266 63.7124L60.014 63.6764C60.002 65.3804 59.996 66.2864 59.996 66.3944C60.224 66.4064 60.404 66.4184 60.536 66.4304C61.232 66.4544 61.814 66.4604 62.282 66.4484ZM62.57 61.0484C63.506 60.9644 64.058 60.7244 64.226 60.3284C64.37 60.0044 64.424 59.7464 64.388 59.5544C64.364 59.4224 64.268 59.2844 64.1 59.1404C63.62 58.7924 62.9 58.5884 61.94 58.5284C61.544 58.5044 61.064 58.5044 60.5 58.5284C60.356 58.5284 60.164 58.5344 59.924 58.5464C59.96 59.2784 59.99 60.0764 60.014 60.9404C61.094 61.0604 61.946 61.0964 62.57 61.0484ZM76.5034 69.0404C75.8194 68.7764 75.4774 68.3384 75.4774 67.7264C74.7934 68.6864 73.8214 69.0644 72.5614 68.8604C72.0334 68.7164 71.5714 68.5004 71.1754 68.2124C70.7914 67.9244 70.4914 67.5824 70.2754 67.1864C70.0594 66.7904 69.8974 66.4004 69.7894 66.0164C69.6814 65.6204 69.6094 65.2004 69.5734 64.7564C69.5374 64.5164 69.5374 64.1204 69.5734 63.5684C69.6094 63.0164 69.6394 62.6084 69.6634 62.3444C69.6874 62.0804 69.7294 61.7204 69.7894 61.2644C69.8494 60.7964 69.8854 60.5084 69.8974 60.4004C69.9454 60.0644 70.0954 59.7944 70.3474 59.5904C70.6114 59.3864 70.9054 59.3084 71.2294 59.3564C71.5654 59.3924 71.8354 59.5424 72.0394 59.8064C72.2434 60.0584 72.3274 60.3524 72.2914 60.6884L72.1654 61.6244C72.1054 62.0684 72.0634 62.4044 72.0394 62.6324C72.0154 62.8484 71.9854 63.1844 71.9494 63.6404C71.9254 64.0844 71.9314 64.4024 71.9674 64.5944C72.0154 65.1824 72.1294 65.6324 72.3094 65.9444C72.5014 66.2444 72.7954 66.4424 73.1914 66.5384C73.4554 66.6104 73.7494 66.5924 74.0734 66.4844C74.3974 66.3644 74.7214 66.0464 75.0454 65.5304C75.1174 65.4584 75.1894 65.3984 75.2614 65.3504C75.2734 63.5864 75.2674 62.0084 75.2434 60.6164C75.2434 60.2564 75.3634 59.9564 75.6034 59.7164C75.8434 59.4644 76.1374 59.3384 76.4854 59.3384C76.8454 59.3264 77.1454 59.4404 77.3854 59.6804C77.6374 59.9204 77.7694 60.2204 77.7814 60.5804C77.8054 62.3564 77.8054 64.7624 77.7814 67.7984C77.7814 68.1344 77.6554 68.4284 77.4034 68.6804C77.1514 68.9204 76.8514 69.0404 76.5034 69.0404ZM81.0853 72.1184C80.8453 72.3464 80.5573 72.4544 80.2213 72.4424C79.8973 72.4304 79.6213 72.3044 79.3933 72.0644C79.1653 71.8364 79.0573 71.5544 79.0693 71.2184C79.0813 70.8944 79.2013 70.6184 79.4293 70.3904C79.6093 70.2224 79.8073 70.0424 80.0233 69.8504C80.2513 69.6704 80.4313 69.5144 80.5633 69.3824C80.7073 69.2504 80.8393 69.1064 80.9593 68.9504C81.1873 68.6744 81.4033 68.3744 81.6073 68.0504C81.5713 68.0024 81.5473 67.9484 81.5353 67.8884L78.9973 61.0124C78.8773 60.6884 78.8833 60.3704 79.0153 60.0584C79.1593 59.7344 79.3933 59.5124 79.7173 59.3924C80.0413 59.2724 80.3593 59.2844 80.6713 59.4284C80.9953 59.5604 81.2173 59.7884 81.3373 60.1124L83.0833 64.9904C83.3593 64.2584 83.8273 62.6624 84.4873 60.2024C84.5713 59.8904 84.7573 59.6564 85.0453 59.5004C85.3333 59.3444 85.6333 59.3144 85.9453 59.4104C86.2693 59.4944 86.5093 59.6804 86.6653 59.9684C86.8213 60.2564 86.8513 60.5624 86.7553 60.8864C86.7193 60.9944 86.6233 61.3784 86.4673 62.0384C86.3233 62.6864 86.2213 63.1004 86.1613 63.2804C86.1013 63.4604 85.9933 63.7964 85.8373 64.2884C85.6933 64.7804 85.5733 65.1464 85.4773 65.3864L85.0813 66.4304C84.9133 66.8624 84.7573 67.2224 84.6133 67.5104L84.1093 68.4824C83.9173 68.8544 83.7133 69.1964 83.4973 69.5084C83.2813 69.8324 83.0593 70.1384 82.8313 70.4264C82.6753 70.6304 82.4833 70.8344 82.2553 71.0384L81.5353 71.6864C81.2953 71.9024 81.1453 72.0464 81.0853 72.1184ZM102.24 68.7884C101.772 68.8724 101.382 68.7284 101.07 68.3564C100.266 67.4084 99.252 66.0044 98.028 64.1444C96.696 62.2604 95.754 60.9824 95.202 60.3104C95.214 60.7904 95.244 61.8584 95.292 63.5144C95.34 65.1584 95.364 66.5264 95.364 67.6184C95.364 67.9664 95.238 68.2664 94.986 68.5184C94.746 68.7584 94.452 68.8784 94.104 68.8784C93.756 68.8784 93.456 68.7584 93.204 68.5184C92.964 68.2664 92.844 67.9664 92.844 67.6184C92.844 66.5624 92.808 64.8584 92.736 62.5064C92.676 60.1424 92.67 58.3544 92.718 57.1424C92.73 56.7944 92.862 56.5004 93.114 56.2604C93.366 56.0204 93.666 55.9064 94.014 55.9184C94.182 55.9304 94.344 55.9664 94.5 56.0264C94.728 56.0984 94.926 56.2304 95.094 56.4224C95.298 56.6744 95.628 57.0764 96.084 57.6284C96.54 58.1684 96.882 58.5764 97.11 58.8524C97.782 59.5484 98.778 60.8324 100.098 62.7044L100.962 63.9464C100.998 61.1624 101.004 58.9004 100.98 57.1604C100.98 56.8124 101.1 56.5184 101.34 56.2784C101.58 56.0264 101.874 55.9004 102.222 55.9004C102.57 55.8884 102.864 56.0024 103.104 56.2424C103.356 56.4824 103.488 56.7764 103.5 57.1244C103.512 58.7564 103.494 62.2304 103.446 67.5464C103.434 67.8824 103.314 68.1704 103.086 68.4104C102.858 68.6384 102.576 68.7644 102.24 68.7884ZM109.098 68.9864C108.054 68.7824 107.238 68.3024 106.65 67.5464C106.05 66.7904 105.69 65.9264 105.57 64.9544C105.462 64.0544 105.564 63.1544 105.876 62.2544C106.188 61.3424 106.692 60.5924 107.388 60.0044C107.664 59.7644 108.018 59.5784 108.45 59.4464C108.462 59.4464 108.588 59.4104 108.828 59.3384C108.924 59.3144 108.996 59.2904 109.044 59.2664C109.38 59.1344 109.716 59.1464 110.052 59.3024C111.18 59.4824 111.936 59.6684 112.32 59.8604C112.764 60.0764 113.142 60.3764 113.454 60.7604C113.766 61.1444 113.982 61.5524 114.102 61.9844C114.234 62.4044 114.33 62.8544 114.39 63.3344C114.45 63.8024 114.444 64.2284 114.372 64.6124C114.312 65.2004 114.18 65.7704 113.976 66.3224C113.772 66.8624 113.46 67.3784 113.04 67.8704C112.62 68.3624 112.128 68.7104 111.564 68.9144C110.88 69.1544 110.058 69.1784 109.098 68.9864ZM109.566 66.5384C110.082 66.6344 110.472 66.6344 110.736 66.5384C110.964 66.4544 111.192 66.2204 111.42 65.8364C111.66 65.4404 111.81 64.9424 111.87 64.3424C111.942 63.7424 111.906 63.2504 111.762 62.8664C111.618 62.4704 111.444 62.2244 111.24 62.1284C111.084 62.0564 110.94 62.0084 110.808 61.9844C110.676 61.9484 110.484 61.9184 110.232 61.8944C109.992 61.8584 109.752 61.8104 109.512 61.7504C109.308 61.8104 109.2 61.8404 109.188 61.8404L109.008 61.9124C108.672 62.2004 108.414 62.5964 108.234 63.1004C108.054 63.6044 108 64.1264 108.072 64.6664C108.132 65.1824 108.288 65.6024 108.54 65.9264C108.804 66.2504 109.146 66.4544 109.566 66.5384ZM118.589 68.9144C118.241 68.9144 117.947 68.7944 117.707 68.5544C117.467 68.3144 117.257 67.8884 117.077 67.2764C116.549 65.5484 115.991 63.5324 115.403 61.2284C115.319 60.8924 115.319 60.5864 115.403 60.3104C115.487 60.0224 115.637 59.8004 115.853 59.6444C116.081 59.4764 116.339 59.3924 116.627 59.3924C117.251 59.3924 117.641 59.7464 117.797 60.4544C118.025 61.5104 118.325 62.7344 118.697 64.1264L118.823 64.5944C118.991 64.1144 119.201 63.3584 119.453 62.3264L119.921 60.6164C120.029 60.2564 120.191 59.9864 120.407 59.8064C120.635 59.6264 120.887 59.5364 121.163 59.5364C121.439 59.5364 121.685 59.6204 121.901 59.7884C122.117 59.9444 122.273 60.1964 122.369 60.5444L123.503 64.3964L124.259 60.6164C124.427 59.8004 124.847 59.3924 125.519 59.3924C125.951 59.3924 126.263 59.5604 126.455 59.8964C126.647 60.2324 126.689 60.6404 126.581 61.1204C125.957 63.8924 125.381 66.1424 124.853 67.8704C124.745 68.2064 124.571 68.4644 124.331 68.6444C124.091 68.8124 123.827 68.8964 123.539 68.8964C123.251 68.8964 122.993 68.8124 122.765 68.6444C122.549 68.4644 122.393 68.2304 122.297 67.9424L121.019 64.0544L120.011 67.5644C119.747 68.4644 119.273 68.9144 118.589 68.9144Z" fill="white"/>
</svg>
