<svg width="95" height="128" viewBox="0 0 95 128" fill="none" xmlns="http://www.w3.org/2000/svg">
<path d="M81.0234 67.8928H87.6972H87.852L87.4959 71.9652L87.0158 77.3848L85.1112 99.0476L85.0183 100.085L83.5318 117.025C83.377 118.744 82.804 120.339 81.9214 121.701C80.0788 124.597 76.8271 126.502 73.1727 126.502H62.0239H57.6573H37.3262H32.9595H21.8107C18.1564 126.502 14.9202 124.597 13.062 121.701C12.1794 120.339 11.6064 118.744 11.4516 117.025L9.96515 100.085L9.87225 99.0476L7.9676 77.3848L7.48758 71.9652L7.13147 67.8928H7.28637H17.4596H28.1129H42.1728H52.8106H66.8705H71.5314" stroke="white" stroke-width="2" stroke-miterlimit="10" stroke-linecap="round" stroke-linejoin="round"/>
<path d="M29.1963 55.304H27.8801" stroke="white" stroke-width="2" stroke-miterlimit="10" stroke-linecap="round" stroke-linejoin="round"/>
<path d="M81.024 67.8927H87.6978C89.4321 67.8927 91.0115 67.1959 92.1574 66.0501C93.3032 64.9042 94 63.3403 94 61.5906C94 58.8344 92.2347 56.5117 89.7727 55.66H89.7572" stroke="white" stroke-width="2" stroke-miterlimit="10" stroke-linecap="round" stroke-linejoin="round"/>
<path d="M71.5473 67.8927H66.8865H52.8265H42.1887H28.1288H17.4755H7.30219C3.81818 67.8927 1 65.0746 1 61.5906C1 59.8563 1.6968 58.2769 2.84265 57.1465C3.52397 56.4652 4.36017 55.9387 5.30473 55.6445" stroke="white" stroke-width="2" stroke-miterlimit="10" stroke-linecap="round" stroke-linejoin="round"/>
<path d="M39.7728 58.1377C39.5869 58.9894 39.6179 59.8565 39.494 60.7081C39.1844 62.6282 37.8836 64.4244 36.0564 65.0128C34.2138 65.6167 31.9376 64.7496 31.1943 62.9689C30.7762 61.9624 30.8692 60.832 30.9311 59.7481C30.993 58.6642 31.0395 57.5184 30.544 56.5583C30.064 55.5828 28.8717 54.8705 27.8652 55.3041C26.6264 55.8306 26.3168 57.7661 24.9851 58.0758C24.1799 58.2616 23.3592 57.7041 22.523 57.7506C21.5165 57.7816 20.7269 58.6642 20.4327 59.6242C20.123 60.5843 20.2314 61.6217 20.2469 62.6282C20.2778 63.6192 20.2623 64.6877 19.7514 65.5548C19.1784 66.5458 18.0016 67.1497 16.8558 67.0413C15.7254 66.9329 14.6879 66.0967 14.3163 65.0283C13.8363 63.5728 14.5021 61.9933 14.3627 60.4604C14.2698 59.6087 13.9291 58.819 13.3872 58.1687H10.1974C6.85273 58.1687 4.14299 55.4589 4.14299 52.1143C4.14299 49.7761 5.49014 47.7477 7.44119 46.7412C5.01013 42.8855 3.58557 38.3331 3.58557 33.44C3.58557 19.7363 14.7034 8.61841 28.4071 8.61841C42.1109 8.61841 53.2288 19.7363 53.2288 33.44C53.2288 38.1782 51.897 42.5913 49.6053 46.354C52.0364 47.1283 53.8017 49.42 53.8017 52.1143C53.8017 55.4589 51.0918 58.1687 47.7472 58.1687H39.7728V58.1377Z" stroke="white" stroke-width="2" stroke-miterlimit="10" stroke-linecap="round" stroke-linejoin="round"/>
<path d="M47.9476 58.1377C47.9476 58.1377 62.4565 58.2461 62.5959 58.2306C62.6888 58.9274 62.6269 59.6551 62.5804 60.3674C62.5185 61.3584 62.4875 62.3804 62.9365 63.263C63.3856 64.1456 64.4385 64.7805 65.3676 64.4398C66.7302 63.9134 66.8696 61.761 68.2323 61.2191C69.053 60.8939 70.0285 61.343 70.5394 62.0707C71.0504 62.783 71.1898 63.6966 71.2053 64.5792C71.2362 65.4618 71.1743 66.3599 71.3447 67.2116C71.7627 69.3794 73.7602 71.1446 75.959 71.2685C78.1578 71.4079 80.3565 69.9059 81.0379 67.8C81.4869 66.4064 81.3166 64.8889 81.0534 63.4488C80.8056 62.0088 80.4804 60.5377 80.6663 59.0822C80.7127 58.757 80.7747 58.4319 80.8986 58.1067H84.4445C88.3001 58.1067 91.428 54.9788 91.428 51.1232C91.428 48.0263 89.384 45.394 86.5968 44.4804C89.2447 40.1447 90.7776 35.0503 90.7776 29.5998C90.7776 13.7902 77.9565 1 62.1778 1C53.2587 1 45.2998 5.07242 40.0505 11.4675" stroke="white" stroke-width="2" stroke-miterlimit="10" stroke-linecap="round" stroke-linejoin="round"/>
<path d="M67.3666 6.99243C70.7577 7.7202 73.901 9.53188 76.2391 12.0868C78.5773 14.6418 80.0948 17.9399 80.5129 21.393" stroke="white" stroke-width="2" stroke-miterlimit="10" stroke-linecap="round" stroke-linejoin="round"/>
<path d="M42.6368 21.3931C46.3067 24.7687 47.7313 30.3895 46.0744 35.1123" stroke="white" stroke-width="2" stroke-miterlimit="10" stroke-linecap="round" stroke-linejoin="round"/>
<path d="M32.346 105.728C31.6527 105.745 30.9507 105.685 30.24 105.546C29.5293 105.407 28.8533 105.139 28.212 104.74C27.588 104.341 27.1113 103.873 26.782 103.336C26.4353 102.851 26.1927 102.365 26.054 101.88C25.95 101.551 25.8633 101.247 25.794 100.97C25.742 100.675 25.7073 100.337 25.69 99.956C25.7073 99.4187 25.8113 98.994 26.002 98.682C26.21 98.37 26.5567 98.1447 27.042 98.006C27.5273 97.8673 27.9867 97.9193 28.42 98.162C28.8533 98.4047 29.1393 98.7687 29.278 99.254C29.3127 99.4793 29.3387 99.7047 29.356 99.93C29.3733 100.121 29.3907 100.259 29.408 100.346C29.4253 100.415 29.4513 100.554 29.486 100.762C29.5727 101.039 29.6767 101.282 29.798 101.49C30.1273 101.785 30.5433 101.993 31.046 102.114C31.5487 102.235 32.346 102.253 33.438 102.166C34.4433 101.941 35.1193 101.611 35.466 101.178C35.8127 100.727 35.96 100.32 35.908 99.956C35.8387 99.5573 35.4747 99.176 34.816 98.812C34.3133 98.5347 33.1953 98.1013 31.462 97.512C29.6073 96.888 28.2987 96.2813 27.536 95.692C26.0107 94.5133 25.3867 92.9967 25.664 91.142C25.7853 90.3273 26.0453 89.6167 26.444 89.01C26.8427 88.386 27.328 87.9093 27.9 87.58C28.4893 87.2333 29.096 86.982 29.72 86.826C30.3613 86.67 31.0027 86.592 31.644 86.592C32.9267 86.592 34.1747 86.8607 35.388 87.398C36.6013 87.918 37.5287 88.62 38.17 89.504C38.43 89.868 38.6293 90.2147 38.768 90.544C38.8547 90.7867 38.9153 90.9513 38.95 91.038C38.9847 91.1247 39.028 91.2893 39.08 91.532C39.236 92 39.1927 92.4593 38.95 92.91C38.7073 93.3607 38.352 93.664 37.884 93.82C37.416 93.976 36.9567 93.9413 36.506 93.716C36.0553 93.4907 35.752 93.144 35.596 92.676C35.5613 92.3813 35.492 92.0867 35.388 91.792C35.2147 91.4453 34.9027 91.1507 34.452 90.908C34.036 90.648 33.62 90.466 33.204 90.362C32.8053 90.258 32.19 90.206 31.358 90.206C30.0927 90.206 29.3907 90.6913 29.252 91.662C29.2173 91.922 29.2347 92.1387 29.304 92.312C29.3733 92.468 29.5207 92.6327 29.746 92.806C30.214 93.17 31.1673 93.5947 32.606 94.08C34.582 94.7387 35.8993 95.25 36.558 95.614C38.2567 96.55 39.236 97.8067 39.496 99.384C39.6347 100.251 39.5653 101.057 39.288 101.802C39.0107 102.53 38.5947 103.137 38.04 103.622C37.4853 104.107 36.9047 104.497 36.298 104.792C35.674 105.104 35.0327 105.338 34.374 105.494C33.7153 105.65 33.0393 105.728 32.346 105.728ZM34.088 106.248C34.0533 106.751 33.906 107.158 33.646 107.47C33.4033 107.799 33.0567 107.955 32.606 107.938C32.1553 107.938 31.8 107.799 31.54 107.522C31.2973 107.245 31.202 106.733 31.254 105.988L31.306 103.232L31.41 96.42L31.332 94.34V85.578C31.4533 85.214 31.644 84.9367 31.904 84.746C32.164 84.538 32.4847 84.4427 32.866 84.46C33.2993 84.46 33.6373 84.59 33.88 84.85C34.1227 85.0927 34.27 85.4393 34.322 85.89L34.244 88.906L34.192 96.472L34.114 105.416L34.088 106.248ZM50.5507 105C50.0653 105 49.6407 104.844 49.2767 104.532C48.9127 104.203 48.7307 103.752 48.7307 103.18L48.7567 100.372C47.1967 100.355 45.888 100.303 44.8307 100.216C43.9467 100.129 43.2273 99.8953 42.6727 99.514C42.1353 99.1153 41.8667 98.5607 41.8667 97.85C41.8667 97.4167 41.9447 97.0267 42.1007 96.68C42.2567 96.3333 42.508 95.9607 42.8547 95.562C45.1947 92.8233 47.0493 90.154 48.4187 87.554C48.9387 86.5833 49.5973 86.098 50.3947 86.098C50.8627 86.098 51.27 86.2627 51.6167 86.592C51.9807 86.904 52.1713 87.2853 52.1887 87.736C52.2927 90.4053 52.3707 93.3953 52.4227 96.706L54.2687 96.628C54.8407 96.628 55.2827 96.81 55.5947 97.174C55.9067 97.538 56.0627 97.9627 56.0627 98.448C56.0627 98.9333 55.9067 99.358 55.5947 99.722C55.2827 100.086 54.8407 100.268 54.2687 100.268L52.3967 100.32C52.3967 101.36 52.388 102.331 52.3707 103.232C52.3533 103.787 52.1627 104.22 51.7987 104.532C51.4347 104.844 51.0187 105 50.5507 105ZM46.5207 96.784C47.0407 96.732 47.7947 96.7233 48.7827 96.758C48.7827 95.4927 48.774 94.574 48.7567 94.002L46.5207 96.784ZM64.2752 105.026C62.9406 105.078 61.8486 104.957 60.9992 104.662C60.7739 104.575 60.5312 104.463 60.2712 104.324L58.5552 103.466C58.1219 103.241 57.8272 102.894 57.6712 102.426C57.5326 101.958 57.5672 101.507 57.7752 101.074C58.0006 100.641 58.3472 100.355 58.8152 100.216C59.2832 100.06 59.7339 100.086 60.1672 100.294L61.0512 100.788C61.3632 100.944 61.5886 101.057 61.7272 101.126C61.8832 101.195 62.0392 101.256 62.1952 101.308C62.6112 101.464 63.2526 101.525 64.1192 101.49C64.4832 101.473 64.8646 101.36 65.2632 101.152C66.1472 100.684 66.6672 100.138 66.8232 99.514C66.9619 98.9767 66.8492 98.4047 66.4852 97.798C66.0692 97.0873 65.4712 96.5413 64.6912 96.16C63.9286 95.7787 63.1746 95.666 62.4292 95.822C62.3599 95.822 62.2386 95.874 62.0652 95.978C61.4759 96.3247 61.1639 96.5067 61.1292 96.524C60.9212 96.628 60.6959 96.6887 60.4532 96.706C60.2452 96.758 60.0286 96.7753 59.8032 96.758C59.3179 96.6887 58.9192 96.4633 58.6072 96.082C58.3126 95.7007 58.1912 95.2673 58.2432 94.782C58.4859 92.8407 58.7372 90.6827 58.9972 88.308C59.0319 88.0653 59.1186 87.84 59.2572 87.632C59.3612 87.2507 59.5692 86.9473 59.8812 86.722C60.1932 86.4793 60.5486 86.358 60.9472 86.358C62.6459 86.3407 65.0986 86.332 68.3052 86.332C68.8079 86.332 69.2326 86.514 69.5792 86.878C69.9432 87.2247 70.1252 87.6493 70.1252 88.152C70.1252 88.6547 69.9432 89.088 69.5792 89.452C69.2326 89.7987 68.8079 89.972 68.3052 89.972H62.3252C62.1866 91.3587 62.1086 92.13 62.0912 92.286C63.5992 92.0607 65.0292 92.3207 66.3812 93.066C67.7506 93.794 68.7992 94.7733 69.5272 96.004C70.3766 97.46 70.6192 98.9247 70.2552 100.398C69.8392 102.027 68.7299 103.319 66.9272 104.272C66.0432 104.74 65.1592 104.991 64.2752 105.026Z" fill="white"/>
</svg>
